<?xml version="1.0" encoding="utf-8"?>
<svg xmlns="http://www.w3.org/2000/svg"
	xmlns:xlink="http://www.w3.org/1999/xlink"
	width="187px" height="106px">
<linearGradient id="linear_PSgrad_0" x1="50%" x2="50%" y1="0%" y2="100%">
    <stop offset="0%" stop-color="rgb(86,121,217)" stop-opacity="1" />
    <stop offset="100%" stop-color="rgb(81,93,213)" stop-opacity="1" />
</linearGradient>

<defs>
<path id="symbol0" fill-rule="evenodd" d="M 179.67 106.01C 179.67 106.01 7.33 106.01 7.33 106.01 3.91 106.01 0.9 101.8 0.01 98.63-0.03 98.48 1.03 98.04 1.13 97.91 1.23 97.79 0.35 98 0.51 98 0.51 98 186.49 98 186.49 98 186.65 98 186.8 98.07 186.9 98.19 187 98.32 187.03 98.48 186.99 98.63 186.65 99.84 185.97 101.96 185.03 102.87 183.59 104.25 181.68 106.01 179.67 106.01ZM 2.25 99.72C 3.2 102.13 5.59 103.76 8.28 103.76 8.28 103.76 178.72 103.76 178.72 103.76 180.43 103.76 182.06 103.1 183.29 101.9 183.93 101.27 184.43 100.53 184.75 99.72 184.75 99.72 2.25 99.72 2.25 99.72Z"/>
</defs>
<path fill="rgb(36,45,77)" fill-rule="evenodd" d="M 26 1C 26 1 162 1 162 1 164.76 1 167 3.24 167 6 167 6 167 99 167 99 167 99 21 99 21 99 21 99 21 6 21 6 21 3.24 23.24 1 26 1Z"/>
<path fill="rgb(40,48,82)" fill-rule="evenodd" d="M 102 1C 102 1 159.21 1 162 1 164.79 1 167 5.19 167 8 167 10.81 167 100 167 100 167 100 102 1 102 1Z"/>
<path fill="rgb(86,121,217)" fill-rule="evenodd" d="M 20 98.98C 20 98.98 20 5.98 20 5.98 20 2.68 22.67-0.01 25.94-0.01 25.94-0.01 162.05-0.01 162.05-0.01 165.33-0.01 168 2.68 168 5.98 168 5.98 168 98.98 168 98.98 168 98.98 20 98.98 20 98.98ZM 166 6.85C 166 4.17 163.83 2 161.15 2 161.15 2 26.85 2 26.85 2 24.17 2 21.99 4.17 21.99 6.85 21.99 6.85 21.99 97.95 21.99 97.95 21.99 97.95 166 98.01 166 98.01 166 98.01 166 6.85 166 6.85ZM 94.64 3.44C 95 3.44 95.29 3.73 95.29 4.09 95.29 4.45 95 4.74 94.64 4.74 94.29 4.74 94 4.45 94 4.09 94 3.73 94.29 3.44 94.64 3.44Z"/>
<g>
<use xlink:href="#symbol0" fill="rgb(86,121,217)"/>
<use xlink:href="#symbol0" fill="url(#linear_PSgrad_0)"/>
</g>
</svg>