<?xml version="1.0" encoding="utf-8"?>
<svg xmlns="http://www.w3.org/2000/svg"
	xmlns:xlink="http://www.w3.org/1999/xlink"
	width="110px" height="60px">
<linearGradient id="linear_PSgrad_0" x1="50%" x2="50%" y1="0%" y2="100%">
    <stop offset="0%" stop-color="rgb(86,121,217)" stop-opacity="1" />
    <stop offset="100%" stop-color="rgb(81,93,213)" stop-opacity="1" />
</linearGradient>

<defs>
<path id="symbol0" fill-rule="evenodd" d="M 105.41 54.22C 102.21 57.89 97.15 60 91.52 60 86.86 60 82.32 58.54 78.72 55.89 74.96 53.12 72.28 50.02 69.93 47.28 65.6 42.25 62.47 38.62 55 38.62 47.7 38.62 44.52 42.26 40.13 47.29 37.75 50.03 35.04 53.13 31.28 55.89 27.69 58.54 23.14 60 18.49 60 12.85 60 7.79 57.89 4.6 54.22 1.64 50.81 0.45 46.29 1.17 41.15 3.47 24.75 10.52 8.56 16.88 5.06 22.19 2.14 40.46 0.28 52.7 0.06 52.7 0.06 52.7-0 52.7-0 52.7-0 58.02-0 58.02-0 58.02-0 58.02 0.08 58.02 0.08 70.05 0.34 87.72 2.09 93.12 5.06 99.48 8.56 106.53 24.75 108.83 41.15 109.56 46.29 108.37 50.81 105.41 54.22ZM 105.81 41.68C 103.48 24.74 96.52 9.95 91.74 7.27 87 4.61 68.09 2.56 54.99 2.56 42.16 2.56 22.9 4.66 18.24 7.27 13.45 9.95 6.5 24.74 4.16 41.68 3.58 45.92 4.49 49.59 6.8 52.29 9.36 55.29 13.51 57.01 18.19 57.01 22.15 57.01 26 55.76 29.04 53.49 32.52 50.88 35 47.98 37.4 45.18 41.85 39.99 46.06 35.09 54.99 35.09 64.09 35.09 68.24 39.99 72.64 45.19 75.01 47.99 77.46 50.88 80.94 53.49 83.97 55.76 87.82 57.01 91.79 57.01 96.46 57.01 100.61 55.29 103.18 52.29 105.49 49.59 106.4 45.92 105.81 41.68ZM 36.36 30.29C 36.36 30.29 30.62 30.29 30.62 30.29 30.62 30.29 30.62 36.03 30.62 36.03 30.62 36.64 30.12 37.14 29.51 37.14 29.51 37.14 22.75 37.14 22.75 37.14 22.13 37.14 21.63 36.64 21.63 36.03 21.63 36.03 21.63 30.29 21.63 30.29 21.63 30.29 15.9 30.29 15.9 30.29 15.28 30.29 14.78 29.79 14.78 29.18 14.78 29.18 14.78 22.42 14.78 22.42 14.78 21.8 15.28 21.3 15.9 21.3 15.9 21.3 21.63 21.3 21.63 21.3 21.63 21.3 21.63 15.57 21.63 15.57 21.63 14.95 22.13 14.45 22.75 14.45 22.75 14.45 29.51 14.45 29.51 14.45 30.12 14.45 30.62 14.95 30.62 15.57 30.62 15.57 30.62 21.3 30.62 21.3 30.62 21.3 36.36 21.3 36.36 21.3 36.97 21.3 37.47 21.8 37.47 22.42 37.47 22.42 37.47 29.18 37.47 29.18 37.47 29.79 36.97 30.29 36.36 30.29ZM 35.76 23.02C 35.76 23.02 28.91 23.02 28.91 23.02 28.91 23.02 28.91 16.16 28.91 16.16 28.91 16.16 23.35 16.16 23.35 16.16 23.35 16.16 23.35 23.02 23.35 23.02 23.35 23.02 16.5 23.02 16.5 23.02 16.5 23.02 16.5 28.58 16.5 28.58 16.5 28.58 23.35 28.58 23.35 28.58 23.35 28.58 23.35 35.43 23.35 35.43 23.35 35.43 28.91 35.43 28.91 35.43 28.91 35.43 28.91 28.58 28.91 28.58 28.91 28.58 35.76 28.58 35.76 28.58 35.76 28.58 35.76 23.02 35.76 23.02Z"/>
</defs>
<path fill="rgb(36,45,77)" fill-rule="evenodd" d="M 90.01 58C 90.01 58 90.01 58 90.01 58 85.48 58 81.06 56.59 77.56 54.03 73.9 51.34 71.3 48.34 69.01 45.69 64.8 40.83 61.76 37.32 54.5 37.32 47.4 37.32 44.32 40.84 40.04 45.71 37.72 48.35 35.1 51.35 31.44 54.03 27.95 56.59 23.53 58 19 58 13.53 58 8.61 55.96 5.5 52.41 2.62 49.11 1.47 44.74 2.17 39.76 4.41 23.9 11.26 8.24 17.44 4.86 22.94 1.85 42.73-0 54.5-0 66.02-0 85.85 1.73 91.56 4.86 97.75 8.24 104.6 23.9 106.84 39.76 107.54 44.74 106.39 49.11 103.51 52.41 100.4 55.96 95.48 58 90.01 58Z"/>
<path fill="rgb(39,49,82)" fill-rule="evenodd" d="M 64 2C 75.52 2 85.85 1.73 91.56 4.86 97.75 8.24 104.6 23.9 106.84 39.76 107.54 44.74 108.59 56.29 96 57 87.86 42.88 72.54 16.53 64 2Z"/>
<g>
<use xlink:href="#symbol0" fill="rgb(48,54,93)"/>
<use xlink:href="#symbol0" fill="url(#linear_PSgrad_0)"/>
</g>
<path fill="rgb(86,120,217)" fill-rule="evenodd" d="M 90.68 28.93C 88.8 28.93 87.28 27.44 87.28 25.61 87.28 23.77 88.8 22.29 90.68 22.29 92.56 22.29 94.08 23.77 94.08 25.61 94.08 27.44 92.56 28.93 90.68 28.93ZM 83.02 35.79C 81.14 35.79 79.62 34.31 79.62 32.47 79.62 30.64 81.14 29.15 83.02 29.15 84.9 29.15 86.42 30.64 86.42 32.47 86.42 34.31 84.9 35.79 83.02 35.79ZM 83.02 21.81C 81.14 21.81 79.62 20.32 79.62 18.48 79.62 16.65 81.14 15.16 83.02 15.16 84.9 15.16 86.42 16.65 86.42 18.48 86.42 20.32 84.9 21.81 83.02 21.81ZM 75.36 28.8C 73.48 28.8 71.95 27.31 71.95 25.48 71.95 23.64 73.48 22.15 75.36 22.15 77.23 22.15 78.76 23.64 78.76 25.48 78.76 27.31 77.23 28.8 75.36 28.8Z"/>
</svg>